HIERARCHY
ROOT hip
{
	OFFSET 0.000000 0.000000 0.000000 
	CHANNELS 6 Xposition Yposition Zposition Xrotation Zrotation Yrotation
	JOINT abdomen
	{
		OFFSET 0.000000 3.402643 0.000000 
		CHANNELS 3 Xrotation Zrotation Yrotation
		JOINT chest
		{
			OFFSET 0.000000 8.438565 -0.680529 
			CHANNELS 3 Xrotation Zrotation Yrotation
			JOINT neck
			{
				OFFSET 0.000000 10.207942 -0.272212 
				CHANNELS 3 Xrotation Zrotation Yrotation
				JOINT head
				{
					OFFSET 0.000000 3.130431 0.000000 
					CHANNELS 3 Xrotation Zrotation Yrotation
					End Site
					{
						OFFSET 0.000000 3.130435 0.000000 
					}
				}
			}
			JOINT lCollar
			{
				OFFSET 3.470700 6.669187 -0.816635 
				CHANNELS 3 Yrotation Zrotation Xrotation
				JOINT lShldr
				{
					OFFSET 3.198488 0.000000 0.000000 
					CHANNELS 3 Zrotation Yrotation Xrotation
					JOINT lForeArm
					{
						OFFSET 10.139888 0.000000 0.000000 
						CHANNELS 3 Yrotation Zrotation Xrotation
						JOINT lHand
						{
							OFFSET 8.370511 0.000000 0.000000 
							CHANNELS 3 Zrotation Yrotation Xrotation
							End Site
							{
								OFFSET 4.083176 0.000000 0.000000 
							}
						}
					}
				}
			}
			JOINT rCollar
			{
				OFFSET -3.470700 6.669187 -0.816635 
				CHANNELS 3 Yrotation Zrotation Xrotation
				JOINT rShldr
				{
					OFFSET -3.198488 0.000000 0.000000 
					CHANNELS 3 Zrotation Yrotation Xrotation
					JOINT rForeArm
					{
						OFFSET -10.139888 0.000000 0.000000 
						CHANNELS 3 Yrotation Zrotation Xrotation
						JOINT rHand
						{
							OFFSET -8.370511 0.000000 0.000000 
							CHANNELS 3 Zrotation Yrotation Xrotation
							End Site
							{
								OFFSET -4.083176 0.000000 0.000000 
							}
						}
					}
				}
			}
		}
	}
	JOINT lThigh
	{
		OFFSET 5.308129 -1.633274 1.361059 
		CHANNELS 3 Xrotation Zrotation Yrotation
		JOINT lShin
		{
			OFFSET -2.041588 -20.007561 0.000000 
			CHANNELS 3 Xrotation Zrotation Yrotation
			JOINT lFoot
			{
				OFFSET 0.000000 -19.190928 -1.224953 
				CHANNELS 3 Xrotation Yrotation Zrotation
				End Site
				{
					OFFSET 0.000000 -2.449906 4.627600 
				}
			}
		}
	}
	JOINT rThigh
	{
		OFFSET -5.308129 -1.633274 1.361059 
		CHANNELS 3 Xrotation Zrotation Yrotation
		JOINT rShin
		{
			OFFSET 2.041588 -20.007561 0.000000 
			CHANNELS 3 Xrotation Zrotation Yrotation
			JOINT rFoot
			{
				OFFSET 0.000000 -19.190928 -1.224953 
				CHANNELS 3 Xrotation Yrotation Zrotation
				End Site
				{
					OFFSET 0.000000 -2.449906 4.627600 
				}
			}
		}
	}
}
MOTION
Frames: 18
Frame Time: 0.033333
85.421562 55.240398 78.020370 169.420853 -166.526230 5.984938 37.852398 -15.745640 -2.912616 1.039980 -3.320014 6.511121 -21.175829 1.709078 -0.584627 0.000000 0.000000 0.000000 -6.776893 1.637058 0.076910 -82.540657 49.541538 -45.000000 -131.695618 -5.000000 -33.946350 -27.294327 -19.013277 3.975397 6.608448 -10.365470 0.534400 85.187805 9.751577 3.679836 135.340912 3.729851 -2.056416 32.156643 1.398598 -6.571558 -47.265865 -12.684911 12.071404 38.381493 -3.046620 -2.399384 -15.441130 1.599423 -7.763950 34.133827 -5.440028 -14.608234 23.627516 5.726781 2.949103 29.594635 -2.639543 16.544413 
85.686989 55.151821 73.970490 169.570496 -167.824966 6.682186 37.717350 -15.211787 -1.942277 1.670552 -3.193865 6.422295 -21.302376 1.640028 -0.584056 0.000000 0.000000 0.000000 -6.746768 0.700802 0.028682 -83.918358 48.926991 -45.000000 -130.798553 -5.000000 -33.346371 -27.141865 -19.288441 4.800968 6.523685 -9.634039 0.496529 85.374260 8.599377 1.764756 134.766083 4.947622 -3.218192 32.193863 0.783574 -6.104621 -43.390877 -12.567609 11.308484 28.513985 -4.164612 -2.351621 -16.118231 1.707680 -7.967080 33.526142 -4.092096 -12.554988 31.063923 6.504028 4.406345 30.339157 -1.420627 19.045189 
85.955841 54.938141 69.925728 170.101105 -169.512939 7.925046 38.091244 -13.646755 -1.750291 2.120232 -2.999503 6.284695 -21.556835 1.637102 -0.603359 0.000000 0.000000 0.000000 -6.805700 -0.987548 -0.048541 -83.689285 47.857918 -45.000000 -129.683060 -5.000000 -32.251656 -27.712473 -19.886026 5.426724 6.541130 -7.965285 0.416798 84.548683 7.633796 0.009955 133.983078 5.000000 -4.708197 31.545544 0.103417 -5.718544 -40.132519 -12.284476 8.407436 22.908974 -4.749589 -2.208895 -16.622026 1.851335 -8.280271 32.652645 -2.217697 -12.621199 39.302784 6.430575 5.760974 30.509554 -1.513855 20.938364 
86.226967 54.641071 65.884377 -9.094755 -8.534452 -170.460236 38.760601 -11.398213 -2.020055 2.446550 -2.746645 6.108087 -21.909760 1.680988 -0.639614 0.000000 0.000000 0.000000 -6.917280 -3.191635 -0.162556 -82.436745 46.523392 -45.000000 -128.449448 -5.000000 -30.860455 -28.776335 -20.700119 5.938545 6.624570 -5.683218 0.297553 83.071732 6.753802 -1.620405 133.100174 5.000000 -6.364408 30.434431 -0.605862 -5.378349 -37.330612 -11.748056 4.110512 20.141138 -4.989706 -2.060153 -17.040087 1.962080 -8.655240 31.527067 -0.030782 -14.208486 48.042934 5.687818 6.963853 30.336746 -2.516205 22.441265 
86.494659 54.284687 61.832794 -8.203298 -6.482621 -169.060074 39.297054 -9.035202 -2.221714 2.688679 -2.435298 5.931122 -22.115011 1.669869 -0.647805 0.000000 0.000000 0.000000 -7.043140 -5.415215 -0.278084 -80.787666 44.957558 -45.000000 -127.032791 -5.000000 -29.239685 -29.404903 -21.454594 6.230862 6.712329 -3.235331 0.170031 81.396187 5.535396 -3.771349 132.074554 5.000000 -8.236402 29.733757 -1.033617 -4.913659 -34.666401 -10.703229 0.044614 18.505426 -5.254131 -2.010155 -16.606245 2.049776 -8.756116 30.155603 1.982210 -15.820269 56.972652 4.622933 7.662339 29.842251 -3.779312 23.204216 
86.748611 53.691067 57.740269 -7.162809 -3.906229 -168.616089 39.390381 -6.298920 -2.220014 2.599183 -1.831649 5.704867 -21.749157 1.419420 -0.540812 0.000000 0.000000 0.000000 -7.184360 -7.785057 -0.401486 -77.643593 42.481541 -45.000000 -124.715637 -5.000000 -26.562414 -28.144880 -22.004656 5.553774 6.854096 -0.134003 0.009261 78.973000 2.986033 -7.996416 130.365921 5.000000 -11.027770 30.668949 -0.375495 -4.080290 -32.507107 -8.261117 -3.083326 21.388971 -5.594016 -2.490744 -12.711295 2.057022 -7.976618 27.884604 3.347255 -17.640377 66.717133 2.796878 6.761032 28.006298 -5.892181 21.094885 
87.002571 53.097443 53.647736 -6.111465 -1.337923 -168.121902 39.471329 -3.552424 -2.211407 2.516107 -1.237551 5.469557 -21.384155 1.178617 -0.435054 0.000000 0.000000 0.000000 -7.330795 -10.145111 -0.526218 -74.781181 39.903812 -45.000000 -122.579994 -5.000000 -24.092234 -26.869774 -22.527788 4.846561 7.004521 2.957573 -0.150978 76.754242 0.273594 -12.117524 128.856033 5.000000 -13.604736 31.632410 0.238135 -3.236209 -30.481123 -5.691420 -6.078290 24.289165 -5.926228 -2.961127 -8.814557 2.111824 -7.217722 25.575987 4.628703 -19.499887 76.489647 1.164392 5.541575 26.099487 -7.939466 18.884695 
87.171936 52.768986 49.861221 -5.779807 -0.199529 -166.640564 40.046127 -1.194453 -3.125149 2.000747 -0.858431 3.857705 -21.739677 0.503877 -0.194752 0.000000 0.000000 0.000000 -6.581291 -11.888503 -0.638966 -69.630341 34.605740 -45.000000 -117.291245 -5.000000 -18.237841 -27.367050 -23.092651 5.806487 7.190902 5.668779 -0.292137 74.315262 -2.693380 -16.560432 126.355019 5.000000 -15.244827 32.288124 0.242280 -2.815313 -29.298120 -4.782941 -7.900411 30.265882 -7.186308 -4.807800 -10.787477 2.053840 -2.826106 20.862980 3.863892 -21.534750 86.611244 0.225553 4.323844 22.173040 -7.787022 15.643853 
87.320168 52.506832 46.151215 -5.604010 0.584569 -164.901443 40.716244 1.068884 -4.235631 1.363671 -0.556482 1.884796 -22.295273 -0.282367 0.092105 0.000000 0.000000 0.000000 -5.595087 -13.488160 -0.725686 -65.238503 28.073332 -44.106079 -112.308914 -5.000000 -12.843478 -28.369980 -23.626568 7.203831 7.383410 8.292181 -0.430431 71.993912 -5.867366 -21.010262 123.614632 5.000000 -16.328100 32.863804 0.090887 -2.498660 -28.300161 -4.286974 -9.462264 37.094498 -8.456330 -7.155523 -14.227870 1.739872 2.498971 15.595035 2.450644 -23.473690 96.828293 -0.332041 3.040683 17.828928 -6.919676 12.259739 
87.367989 52.441029 42.483330 -5.447031 1.431468 -164.653107 41.203766 2.718275 -3.864005 0.847872 -0.351558 0.263667 -22.888132 -1.188272 0.436513 0.000000 0.000000 0.000000 -5.213474 -14.337583 -0.762318 -62.173840 21.541483 -36.122620 -109.277847 -5.000000 -8.839394 -29.337984 -23.883343 8.096519 7.134641 9.870838 -0.523355 69.881256 -9.932423 -25.668970 122.687531 5.000000 -17.926197 33.209595 0.023851 -2.586731 -25.602379 -3.134252 -10.334597 40.571938 -8.827508 -8.244511 -17.602913 1.385592 5.334017 9.204021 0.535971 -23.693832 105.826759 -1.055504 2.919409 13.579454 -6.502568 9.038630 
87.265190 52.669765 38.878647 -5.340699 2.384611 -166.608932 41.545731 3.412864 -1.295168 0.539177 -0.263664 -0.839884 -23.553286 -2.268743 0.867011 0.000000 0.000000 0.000000 -5.727449 -14.074199 -0.748734 -60.334763 15.349632 -27.530342 -108.463943 -5.000000 -5.691525 -30.223547 -23.738012 8.222034 6.207273 9.910003 -0.525391 68.110588 -15.257609 -30.702906 124.653687 5.000000 -20.992498 33.201992 0.109539 -3.253648 -20.358316 -1.083754 -10.147760 39.025707 -8.202433 -7.318074 -20.821278 1.529355 4.606891 1.022922 -1.663241 -21.224863 112.935127 -2.352336 4.517243 9.185476 -6.960490 5.923204 
87.162399 52.898491 35.273968 -5.282246 3.340813 -168.573563 42.003788 4.066496 1.280433 0.228404 -0.185508 -1.933619 -24.222601 -3.347491 1.308296 0.000000 0.000000 0.000000 -6.241369 -13.801063 -0.734630 -59.484295 8.966085 -19.324369 -108.211449 -5.000000 -2.727056 -31.119383 -23.593107 8.352744 5.270141 9.949171 -0.527425 66.796127 -20.699450 -35.721241 126.949570 5.000000 -24.377108 33.186729 0.199727 -3.928709 -15.103479 0.957287 -9.750048 37.477982 -7.538570 -6.388162 -24.075068 1.634638 3.825809 -7.253985 -3.494262 -18.467581 120.013321 -3.876279 5.972315 4.817461 -7.126628 2.826680 
87.213943 53.452370 31.509235 175.216248 174.143631 6.872828 42.586086 4.674310 4.718246 -0.279076 0.507579 -2.744159 -24.276255 -3.258312 1.244943 0.000000 0.000000 0.000000 -6.245251 -11.714142 -0.620427 -60.101028 6.808984 -15.813302 -111.456718 -3.448971 -0.711927 -29.880804 -24.411255 6.023168 5.333818 8.262016 -0.438537 66.315819 -25.558077 -38.252670 130.267502 5.000000 -27.481155 32.975567 0.488840 -5.709354 -7.084412 4.645584 -5.772588 31.891705 -6.739223 -4.785127 -25.578579 1.962121 1.884487 -15.476558 -0.712280 -14.412548 120.475578 -4.999664 7.421556 1.762476 -11.007977 1.637899 
87.265488 54.006241 27.744514 175.514923 171.598587 2.320220 43.324051 5.214711 8.174298 -0.790703 1.200192 -3.564763 -24.320858 -3.167658 1.191789 0.000000 0.000000 0.000000 -6.253499 -9.627181 -0.509120 -60.847580 4.678773 -12.284231 -114.939629 2.714834 2.045075 -28.620468 -25.163387 3.656424 5.400263 6.584593 -0.349221 66.070267 -30.432020 -40.862297 133.683701 5.000000 -30.751762 32.787838 0.753095 -7.488296 1.210333 7.756256 -1.283442 26.341694 -5.780809 -3.286334 -27.077417 2.298676 -0.109599 -23.503265 2.616898 -10.783053 120.913689 -6.136679 8.871367 -1.387009 -14.830840 0.247257 
87.431725 54.595970 23.786301 175.967651 168.808868 -0.396465 43.813004 6.755819 10.552117 -0.963273 1.989477 -4.610963 -23.935415 -2.750854 1.009390 0.000000 0.000000 0.000000 -5.929688 -7.288695 -0.366196 -61.035984 3.313205 -10.128986 -118.014137 5.000000 4.537724 -28.246597 -25.095251 2.902954 5.890464 4.984100 -0.276124 67.123123 -34.976723 -44.305386 136.327759 5.000000 -33.494930 32.627148 0.549353 -7.951931 9.303890 10.632191 3.484149 21.502089 -5.178862 -2.303144 -25.512403 2.032564 -2.012557 -29.227886 6.493621 -8.234901 118.030708 -5.823516 9.342115 -3.417912 -15.943604 -0.209475 
87.674408 55.209610 19.699089 176.553528 165.847107 -1.871092 44.168816 8.967041 12.246189 -0.918591 2.845484 -5.815140 -23.244415 -2.109608 0.744249 0.000000 0.000000 0.000000 -5.388962 -4.772466 -0.234333 -60.792809 2.427454 -8.905020 -120.767059 5.000000 6.738987 -28.478701 -24.494576 3.265397 6.655537 3.442939 -0.195592 69.309677 -39.205086 -45.000000 138.451889 5.000000 -35.884415 32.467075 0.032777 -7.525251 17.339312 13.132577 8.570607 17.120995 -4.834105 -1.720683 -21.918562 1.049761 -3.927473 -33.463348 10.653232 -6.439945 112.974297 -4.573354 9.053977 -4.557052 -15.400873 0.063833 
87.914192 55.816341 15.587938 177.024246 163.363770 -3.157721 44.438423 10.843232 13.508706 -0.895394 3.709406 -6.981610 -22.539391 -1.475010 0.499854 0.000000 0.000000 0.000000 -4.962464 -2.538212 -0.128823 -60.240295 1.704227 -7.877108 -123.336784 5.000000 8.917286 -28.712343 -24.166523 3.441109 7.257329 2.332174 -0.128323 71.512093 -42.925415 -45.000000 140.598816 5.000000 -38.323856 32.273537 -0.407657 -7.070407 25.026327 14.599398 13.927280 13.067193 -4.548948 -1.218465 -15.236101 -0.246768 -5.347628 -37.194210 14.384056 -4.815359 107.451324 -3.410657 8.870396 -5.630795 -14.638550 0.414274 
88.142418 56.395515 11.381062 177.280258 162.846588 -3.718943 43.898586 11.410573 12.977896 -0.871868 4.600691 -8.053477 -21.722351 -0.903569 0.294712 0.000000 0.000000 0.000000 -4.931190 -1.436168 -0.071648 -58.366070 1.678510 -7.658024 -124.713951 5.000000 10.043946 -28.990877 -24.921431 2.949918 7.258790 2.907576 -0.158128 71.811378 -45.124310 -45.000000 142.566299 5.000000 -40.629364 31.955973 -0.488832 -6.555392 30.212130 14.297014 18.977695 10.189921 -4.810718 -1.031265 3.973932 -2.098316 -4.454754 -39.116943 16.063087 -2.735273 100.025154 -2.256824 9.444505 -6.267090 -13.144254 1.014262 
